<svg xmlns="http://www.w3.org/2000/svg" viewBox="0 0 171.46 48"><defs><style>.cls-1{font-size:32px;font-family:RoBrushStd-UB-83pv-RKSJ-H, Ro Brush Std;letter-spacing:0.1em;}.cls-1,.cls-2{fill:#006e54;}.cls-3{fill:#fff;}</style></defs><g id="レイヤー_2" data-name="レイヤー 2"><g id="レイヤー_1-2" data-name="レイヤー 1"><text class="cls-1" transform="translate(0 36.23) scale(0.88 1)">おきつ</text><rect class="cls-2" x="97" width="74.46" height="48" rx="10.92"/><path class="cls-3" d="M110.11,22.21l-.2-9.78.11-.11h.17l.09.81.28.14.08-.75h.23l.25,1.76.28.06.11-1.91h.25l.17.9,4.82.06,10.47.11,2.8-.25.14-1.07.3,1.82.54-.17v-1.2l.28-.28.22,1.09,0,8.15v0l0,4.45.11,9.18h-.25l-.2-1.42L131,35.2h-.16l-.06-1.29-.2.06-.33,1.84L130,34.08l-.08.64-.23.09-.05-.59-14.9.14-1.18-.14-2.21.08a1.41,1.41,0,0,1-.3-.14l-.06.93-.31-1.32-.28.08-.42,1.32-.11-.11,0-.42Zm5,7.05,11.09,0c0-1.17.06-2.12.06-2.49,0-2.07.08-3.33.08-3.89,0-.08-.06-1.6-.14-4.51l-11-.25-.12,10.61Z"/><path class="cls-3" d="M135.45,22.93a8.63,8.63,0,0,1,.56-1l1.59-1.77a15.59,15.59,0,0,0,3.48-7.3,7.17,7.17,0,0,1,.5-1.88l.23.22.39-.05.22.64.23-.78.19,0,.25.53.17-.17.51,0,.08.81.42-1,.25.34V12l.25-.08.14-.53h.26l.16.81.48-.84.47-.06a20.58,20.58,0,0,1-.39,3.08l6.72-.05L152.22,12l.42-.17.62.75,0-.36h.23l.33.45-.05-.93.36.09.42,1.06,0-1.06.39.11.25.53v-.19l.25-.23v-.36l.26,0a6,6,0,0,1,.56,1.48l.13.51c0,.11.12.39.2.7l.84,0-.5-2.46.16-.17h.17l.06.19.17-.14h.19l.28.48,0-.53h.29l.3.47-.05-.78.19-.08.39.61.12-.53.14-.06.45.79-.09-.84.42-.2.31.28,1.2,5.15-.19.2-.4-.06,0,.17-.22.28-.53-.92v.75l-.14.23-.12,0-.27-.2a26.56,26.56,0,0,1-1.07,5.49c-1.06,3.11-1.4,3.72-3.14,5.68-2,2.49-3.08,3.33-6.69,5.13a34.93,34.93,0,0,1-8.09,2.66l-.17-.17a1.12,1.12,0,0,1,.84-.7l-1,.14-.25-.23.45-.44-.36-.09-.2-.17.59-.39-.76.14-.25-.22.73-.7-.65,0,.2-.39,1.09-.51-2,.26L139,32l.42-.39-.31-.33-.84-.12.19-.33a9.84,9.84,0,0,1,1-.25l2.35-.48a25.68,25.68,0,0,0,7.08-3c2.83-1.91,5-5.24,5.32-8h-9.91c-.17.42-.28.67-.34.78l-.44.82a29.6,29.6,0,0,1-4.29,5.85l-.39-.11.11-.48-.39,0,0-.14.48-.95-.9.78-.45-.11.17-.62h-.39l.42-.92-.59.45-.47,0,.19-.84-.39.17,0-.5-.28.25-.48,0,.28-.84-.17.25Z"/></g></g></svg>